# xmcd
#
# Track frame offsets:
#	150
#	17437
#	39451
#	58026
#	78321
#	103891
#	122884
#	140363
#	163285
#	185136
#
# Disc length: 2808 seconds
#
# Revision: 2
# Processed by: cddbd v1.5.2PL0 Copyright (c) Steve Scherf et al.
# Submitted via: EZCDAudioConverter 8.0.2.1
#
DISCID=890af60a
DTITLE=Mỹ Linh - Tóc Ngắn Acoustic. Một Ngày
DYEAR=2011
DGENRE=World Pop
TTITLE0=Mỹ Linh - Chiều
TTITLE1=Mỹ Linh - Lời mẹ hát
TTITLE2=Mỹ Linh - Mùa cũ
TTITLE3=Mỹ Linh - Một Ngày
TTITLE4=Mỹ Linh - Cơn bão
TTITLE5=Mỹ Linh - Tiếng dương cầm
TTITLE6=Mỹ Linh, M4U - Nhớ mưa
TTITLE7=Mỹ Linh - Gửi anh
TTITLE8=Mỹ Linh - Mãi bên con
TTITLE9=Mỹ Linh, Mỹ Anh - Cơn bão
EXTD=
EXTT0=
EXTT1=
EXTT2=
EXTT3=
EXTT4=
EXTT5=
EXTT6=
EXTT7=
EXTT8=
EXTT9=
PLAYORDER=
